<svg width="24" height="24" viewBox="0 0 24 24" fill="none" xmlns="http://www.w3.org/2000/svg">
<path d="M24 11.9978C24.0004 14.3713 23.297 16.6916 21.9787 18.6652C20.6604 20.6389 18.7864 22.1773 16.5937 23.0859C14.4011 23.9945 11.9882 24.2325 9.66027 23.7697C7.33236 23.3069 5.19395 22.1642 3.5155 20.4861C1.83705 18.8079 0.693945 16.6697 0.230743 14.3419C-0.232458 12.0141 0.00505312 9.60115 0.91324 7.40831C1.82143 5.21547 3.35949 3.34119 5.33293 2.02252C7.30637 0.703843 9.62653 4.01453e-08 12 0C15.1815 0.00233756 18.2321 1.26707 20.4819 3.51652C22.7318 5.76597 23.9971 8.81629 24 11.9978V11.9978ZM11.9978 2.03495C10.0271 2.03538 8.10075 2.62014 6.46234 3.71528C4.82393 4.81042 3.54703 6.36677 2.79307 8.18756C2.03912 10.0083 1.84196 12.0118 2.22653 13.9446C2.61111 15.8774 3.56014 17.6528 4.95365 19.0464C6.34715 20.4399 8.12255 21.3889 10.0554 21.7735C11.9882 22.158 13.9917 21.9609 15.8124 21.2069C17.6332 20.453 19.1896 19.1761 20.2847 17.5377C21.3799 15.8993 21.9646 13.9729 21.9651 12.0022C21.9659 10.693 21.7087 9.39655 21.2081 8.18687C20.7075 6.97719 19.9734 5.87807 19.0477 4.95235C18.1219 4.02663 17.0228 3.29248 15.8131 2.79188C14.6035 2.29129 13.307 2.03407 11.9978 2.03495V2.03495Z" fill="white"/>
<path d="M6.95233 18.1688C8.41564 16.0633 11.7329 13.7017 13.6707 13.4037C13.8208 13.8562 13.9996 14.3086 14.1122 14.7743C14.4763 16.1736 14.8162 17.5773 15.1716 18.9678C15.2356 19.2238 15.1716 19.3474 14.9133 19.4423C12.15 20.4333 9.57437 20.0912 7.18849 18.3851C7.12228 18.3366 7.05827 18.2814 6.99427 18.2284C6.97867 18.2098 6.96464 18.1898 6.95233 18.1688V18.1688Z" fill="white"/>
<path d="M12.3487 10.2189L13.0108 11.6822C10.0798 12.7305 7.60344 14.3748 5.6325 16.8313C4.48961 15.3183 3.91887 13.4498 4.02132 11.5564C6.84611 11.5034 9.64939 11.0531 12.3487 10.2189V10.2189Z" fill="white"/>
<path d="M11.4527 8.49733C9.15439 9.18168 6.77233 9.54416 4.37451 9.57439C4.465 9.33161 4.53342 9.11973 4.6195 8.91226C5.38701 7.07815 6.80941 5.59517 8.60993 4.75188C8.64639 4.72582 8.68808 4.708 8.73211 4.69965C8.77614 4.69131 8.82146 4.69264 8.86492 4.70356C8.90839 4.71448 8.94896 4.73472 8.98382 4.76289C9.01868 4.79105 9.04699 4.82645 9.0668 4.86665C9.96024 6.00946 10.7582 7.22377 11.4527 8.49733V8.49733Z" fill="white"/>
<path d="M18.2814 7.04285C19.2395 8.25402 19.824 9.71816 19.9632 11.2562C19.8219 11.2562 19.705 11.2562 19.5858 11.2562C18.1732 11.3003 16.7585 11.3489 15.3459 11.3886C15.2621 11.3886 15.1252 11.3445 15.1009 11.2827C14.8405 10.7 14.5999 10.1063 14.3483 9.49053C15.7781 8.8831 17.1049 8.05738 18.2814 7.04285Z" fill="white"/>
<path d="M15.8161 13.066H19.9301C19.664 15.0483 18.6656 16.8591 17.1315 18.1424C16.6967 16.4627 16.2663 14.8074 15.8161 13.066Z" fill="white"/>
<path d="M11.1216 4.04561C13.2123 3.81597 15.3096 4.41677 16.9616 5.71859C15.9141 6.55376 14.7543 7.23731 13.5163 7.74912C12.7085 6.50211 11.9206 5.28379 11.1216 4.04561Z" fill="white"/>
</svg>
