<svg width="24" height="25" viewBox="0 0 24 25" fill="none" xmlns="http://www.w3.org/2000/svg">
<path d="M14.2019 17.7993C14.7851 17.6762 15.338 17.5891 15.8815 17.4357C18.0231 16.8241 19.29 15.3149 19.5551 13.0805C19.6781 12.0636 19.7558 11.0373 19.3657 10.064C19.1574 9.53189 18.8128 9.05281 18.5401 8.54912C18.4803 8.45175 18.4568 8.3364 18.4738 8.22342C18.7394 7.26171 18.7024 6.24154 18.3678 5.30161C18.3531 5.23278 18.3124 5.17226 18.2542 5.13274C18.196 5.09321 18.1247 5.07773 18.0553 5.08953C17.3339 5.08953 16.7014 5.38493 16.0822 5.71063C15.7755 5.87158 15.4914 6.07988 15.1847 6.24083C15.0578 6.30875 14.9119 6.33272 14.77 6.309C12.9531 5.8432 11.0481 5.8432 9.23122 6.309C9.153 6.33616 9.06954 6.34483 8.9874 6.33431C8.90527 6.3238 8.82669 6.2944 8.75782 6.24841C8.02122 5.75418 7.24296 5.32434 6.36812 5.14634C5.72998 5.01758 5.67317 5.05356 5.50086 5.68223C5.25753 6.51954 5.25753 7.40882 5.50086 8.24614C5.51208 8.28941 5.51399 8.33456 5.50649 8.37863C5.49898 8.42269 5.48222 8.46466 5.4573 8.50178C4.5427 9.59248 4.24541 10.865 4.3363 12.2549C4.40826 13.3702 4.61276 14.4514 5.22439 15.4153C5.98183 16.6234 7.15017 17.2369 8.4984 17.5531C8.90552 17.6497 9.32022 17.7122 9.76332 17.7955C9.37042 18.228 9.11759 18.7693 9.03807 19.3482C9.02861 19.3994 8.95286 19.4562 8.89416 19.4808C7.61031 20.0129 6.36054 19.7875 5.58228 18.4772C5.18841 17.8144 4.67146 17.3051 3.87805 17.1517C3.70268 17.1249 3.52374 17.1332 3.35164 17.1763C3.13198 17.2255 3.09411 17.3543 3.23234 17.5266C3.3203 17.6393 3.42579 17.7371 3.54478 17.8163C4.16556 18.2066 4.63349 18.7982 4.87029 19.4922C5.42132 21.0354 6.79228 21.6149 8.31662 21.4369C8.53627 21.4122 8.75404 21.3782 9.00778 21.3422C9.00778 22.0788 9.02861 22.7927 9.00778 23.5047C8.99074 23.9497 8.58172 24.1485 8.10643 23.9799C6.92102 23.5741 5.81232 22.9717 4.82674 22.1981C1.45994 19.5243 -0.227243 16.0098 0.0246045 11.7398C0.331365 6.53245 2.96156 2.7964 7.82429 0.798667C12.1379 -0.97373 17.3945 0.29308 20.5738 3.71479C22.3389 5.57307 23.4864 7.93158 23.8592 10.4673C24.7435 16.3677 21.3862 22.0012 15.9516 23.9421C15.2945 24.1769 14.948 23.9421 14.9517 23.2339C14.9517 22.1981 14.9726 21.1509 14.9726 20.1246C14.9764 19.2668 14.8268 18.4526 14.2019 17.7993Z" fill="white"/>
</svg>
