<svg width="24" height="24" viewBox="0 0 24 24" fill="none" xmlns="http://www.w3.org/2000/svg">
<path d="M12.1004 0H21.9086C23.2653 0 23.9955 0.728007 23.9977 2.07813C23.9977 8.6346 23.9977 15.1925 23.9977 21.752C24.0118 22.0656 23.9601 22.3787 23.8462 22.6712C23.7322 22.9637 23.5584 23.2292 23.3359 23.4506C23.152 23.6282 22.9341 23.7669 22.6952 23.8582C22.4564 23.9496 22.2016 23.9918 21.9461 23.9823C19.115 23.9823 16.2838 23.9823 13.4527 23.9823H2.28329C0.882432 23.9867 0.0132365 23.1087 0.0132365 21.7034C0.0132365 15.1756 0.0330912 8.64784 0 2.12004C0 0.690503 1.11628 0 2.13769 0C5.46005 0.0154426 8.7802 0 12.1004 0ZM12.9453 19.9717C12.9453 19.8371 12.9453 19.7246 12.9453 19.6121V13.8123C12.9335 13.4868 13.0021 13.1634 13.1448 12.8706C13.2875 12.5778 13.5001 12.3247 13.7637 12.1334C13.9805 11.9605 14.2371 11.8445 14.5101 11.796C14.7831 11.7476 15.0639 11.7681 15.327 11.8558C15.5901 11.9435 15.8271 12.0955 16.0164 12.2981C16.2057 12.5007 16.3414 12.7475 16.411 13.0159C16.513 13.4084 16.5634 13.8126 16.561 14.2182C16.5765 16.0272 16.561 17.8384 16.561 19.6496V19.9805H20.0025V19.6341C20.0025 17.7413 20.0025 15.8463 20.0025 13.9513C20.0047 13.5458 19.9826 13.1407 19.9364 12.7379C19.6981 10.8649 18.6789 9.31849 16.5456 9.09126C15.222 8.95228 14.0947 9.31187 13.2541 10.3928C13.1703 10.5032 13.0799 10.6135 12.9387 10.7789V9.33613H9.52365V19.9783L12.9453 19.9717ZM4.0261 19.9717H7.42346V9.32952H4.0261V19.9717ZM7.69922 5.87479C7.69922 4.77175 6.95136 4.00624 5.877 4.00404C5.63175 3.99171 5.38661 4.03037 5.15707 4.11759C4.92752 4.2048 4.71856 4.33868 4.54338 4.51075C4.36819 4.68282 4.2306 4.88936 4.13929 5.1173C4.04797 5.34525 4.00493 5.58966 4.01286 5.83508C4.00064 6.07774 4.03865 6.3203 4.12451 6.54758C4.21037 6.77487 4.34224 6.98197 4.51185 7.15593C4.68146 7.32989 4.88516 7.46696 5.1102 7.55855C5.33523 7.65013 5.57676 7.69427 5.81964 7.68819C6.91606 7.69481 7.69481 6.94254 7.69922 5.87479Z" fill="white"/>
</svg>
