<svg width="24" height="20" viewBox="0 0 24 20" fill="none" xmlns="http://www.w3.org/2000/svg">
<path d="M7.22952 15.3088C4.9721 15.1108 3.46175 13.9749 2.63366 11.8705C3.35044 12.0011 4.08681 11.9778 4.79388 11.8021C2.35824 11.046 1.06031 9.44022 0.889289 6.86596C1.58063 7.24228 2.3494 7.45419 3.13591 7.48523C2.05401 6.70035 1.36274 5.72105 1.08011 4.48973C0.795876 3.27046 0.989114 1.98865 1.62016 0.907368C4.28803 4.05048 7.65616 5.77866 11.7822 6.06488C11.7534 5.85966 11.73 5.69405 11.7102 5.52483C11.5864 4.5187 11.7761 3.49888 12.2536 2.60464C12.731 1.7104 13.4728 0.985322 14.3778 0.528434C15.2827 0.0715449 16.3066 -0.0948843 17.3096 0.0518736C18.3126 0.198632 19.2459 0.651422 19.982 1.34841C20.0478 1.4229 20.1343 1.47618 20.2304 1.5015C20.3266 1.52682 20.4281 1.52303 20.5221 1.49063C21.4245 1.27727 22.2936 0.941745 23.1053 0.493326L23.3339 0.374515C22.9746 1.4703 22.2477 2.4083 21.2763 3.02978L21.2997 3.09099C21.7408 2.99558 22.1872 2.91097 22.6229 2.79576C23.0585 2.68054 23.4905 2.51493 24 2.34751C23.7396 2.70625 23.4615 3.05172 23.1665 3.38262C22.7183 3.84526 22.2376 4.28271 21.7534 4.70215C21.6868 4.74958 21.6332 4.81305 21.5977 4.88669C21.5621 4.96032 21.5457 5.04173 21.55 5.12339C21.5842 9.05498 20.27 12.4789 17.5896 15.352C15.4293 17.6652 12.7399 18.9902 9.60936 19.4186C6.60389 19.8666 3.53427 19.3245 0.864086 17.8741C0.626463 17.7445 0.39604 17.6004 0.162016 17.4636C0.126013 17.451 0.0954095 17.415 0 17.3448C1.2842 17.4802 2.5824 17.3733 3.82718 17.0298C5.0624 16.6828 6.21809 16.0982 7.22952 15.3088Z" fill="white"/>
</svg>
