<svg width="24" height="24" viewBox="0 0 24 24" fill="none" xmlns="http://www.w3.org/2000/svg">
<path d="M2.90404e-10 11.9999C1.65133e-05 9.62465 0.704948 7.3028 2.02551 5.32845C3.34608 3.35411 5.22288 1.81607 7.4182 0.909152C9.61352 0.00222917 12.0286 -0.232784 14.3576 0.233877C16.6866 0.700539 18.8247 1.84788 20.5011 3.53059C22.1776 5.2133 23.3169 7.35568 23.7749 9.68639C24.2328 12.0171 23.9888 14.4313 23.0737 16.6232C22.1586 18.8151 20.6135 20.6862 18.6343 21.9994C16.655 23.3125 14.3305 24.0088 11.9553 23.9999C8.78042 23.9881 5.73966 22.7186 3.49889 20.4694C1.25812 18.2203 -2.20715e-05 15.1748 2.90403e-10 11.9999H2.90404e-10ZM11.9837 23.0501C14.1658 23.0533 16.2999 22.4096 18.1162 21.2002C19.9325 19.9909 21.3496 18.2702 22.1882 16.2557C23.0269 14.2412 23.2496 12.0233 22.828 9.88235C22.4065 7.74136 21.3598 5.77338 19.8201 4.22714C18.2804 2.6809 16.3168 1.62581 14.1776 1.19523C12.0385 0.764645 9.81963 0.977892 7.8016 1.80802C5.78358 2.63814 4.05694 4.04789 2.83991 5.85907C1.62289 7.67025 0.970103 9.80157 0.964068 11.9837C0.960324 13.4337 1.24252 14.8702 1.79451 16.211C2.3465 17.5518 3.15745 18.7706 4.18096 19.7977C5.20447 20.8248 6.42045 21.6401 7.75934 22.1967C9.09822 22.7534 10.5337 23.0406 11.9837 23.042V23.0501Z" fill="white"/>
<path d="M22.078 12.5064C21.9767 14.6446 21.1926 16.6941 19.8407 18.3538L16.7085 17.0318C16.8102 16.4745 16.9485 15.8765 17.0217 15.2704C17.1254 14.4325 17.1844 13.5884 17.2556 12.7464C17.2699 12.5938 17.2556 12.4718 17.4814 12.4738C18.9702 12.4738 20.461 12.4738 21.956 12.4738C21.9975 12.4811 22.0383 12.492 22.078 12.5064Z" fill="white"/>
<path d="M22.0698 11.5077H17.3512C17.1478 9.97214 16.9647 8.45688 16.7736 6.94163L19.8366 5.6501C21.1926 7.31108 21.9759 9.36559 22.0698 11.5077Z" fill="white"/>
<path d="M6.69971 11.5098H1.93225C2.02792 9.36666 2.81256 7.31162 4.16954 5.6501C5.04615 6.01824 5.88005 6.38027 6.72615 6.71383C7.28344 6.93552 7.25903 6.91722 7.17361 7.50298C7.00683 8.67044 6.87666 9.844 6.73429 11.0135C6.71191 11.1742 6.71191 11.3348 6.69971 11.5098Z" fill="white"/>
<path d="M6.62035 12.4982C6.81696 14.044 7.01289 15.566 7.20815 17.0643L4.19187 18.3416C3.12001 17.4569 1.85899 14.221 1.95458 12.4982H6.62035Z" fill="white"/>
<path d="M11.518 7.65349V11.4996H7.59869C7.60622 10.0481 7.78647 8.60269 8.13564 7.19382L11.518 7.65349Z" fill="white"/>
<path d="M7.5946 12.4942H11.5078V16.3443L8.13562 16.802C7.7864 15.3923 7.60481 13.9464 7.5946 12.4942Z" fill="white"/>
<path d="M16.3851 11.5077H12.5085V7.64332L15.8359 7.19789C16.1788 8.6096 16.3629 10.0552 16.3851 11.5077Z" fill="white"/>
<path d="M12.4922 12.4921H16.3811C16.3623 13.9416 16.1815 15.3845 15.8421 16.7938L12.4922 16.3464V12.4921Z" fill="white"/>
<path d="M11.5098 22.0454C11.2454 21.9009 11.0136 21.7972 10.8061 21.6548C10.2502 21.2406 9.78846 20.713 9.45153 20.107C9.00313 19.3538 8.64863 18.5485 8.39594 17.7091C9.41514 17.4559 10.4598 17.3195 11.5098 17.3023V22.0454Z" fill="white"/>
<path d="M11.5017 2.03382V6.76671L8.35529 6.34162C9.02851 4.55789 9.66512 2.88399 11.4061 1.98094L11.5017 2.03382Z" fill="white"/>
<path d="M12.4943 6.71179V2.00738C12.6091 2.04447 12.7218 2.08793 12.8319 2.13755C13.3881 2.44645 13.8612 2.88539 14.2109 3.41687C14.8158 4.30211 15.2783 5.27663 15.5817 6.30501C14.5714 6.55761 13.5355 6.69409 12.4943 6.71179Z" fill="white"/>
<path d="M15.5634 17.6948C14.937 19.9321 13.6048 21.7362 12.5004 21.9823V17.2881C13.5332 17.3114 14.5603 17.4478 15.5634 17.6948Z" fill="white"/>
<path d="M14.3654 21.8115C15.3946 20.6542 15.9925 19.3423 16.4522 17.884L19.2366 19.0291C17.9038 20.3922 16.2166 21.3559 14.3654 21.8115Z" fill="white"/>
<path d="M14.3614 2.1884C16.2104 2.64178 17.8956 3.60345 19.2265 4.96467L16.4543 6.11586C15.9763 4.67789 15.4048 3.34976 14.3614 2.1884Z" fill="white"/>
<path d="M7.52546 17.8982C7.99325 19.3362 8.57088 20.6318 9.54308 21.7443C8.42647 21.722 5.65834 20.1416 4.80817 19.0291L7.52546 17.8982Z" fill="white"/>
<path d="M4.77557 4.97281C6.06577 3.63975 7.70645 2.69849 9.50846 2.25755C8.57693 3.37823 7.98913 4.67789 7.52541 6.10162L4.77557 4.97281Z" fill="white"/>
</svg>
